<svg xmlns="http://www.w3.org/2000/svg" xmlns:xlink="http://www.w3.org/1999/xlink" width="1000" zoomAndPan="magnify" viewBox="0 0 750 749.999995" height="1000" preserveAspectRatio="xMidYMid meet" version="1.2"><defs><clipPath id="344d94142a"><path d="M 139.347656 11.847656 L 674.847656 11.847656 L 674.847656 737.847656 L 139.347656 737.847656 Z M 139.347656 11.847656 "/></clipPath></defs><g id="b5ec9989ab"><g clip-rule="nonzero" clip-path="url(#344d94142a)"><path style=" stroke:none;fill-rule:evenodd;fill:#8b5cf6;fill-opacity:1;" d="M 139.347656 11.925781 L 407.058594 11.925781 C 554.347656 11.925781 674.765625 132.414062 674.765625 279.636719 C 674.765625 393.726562 601.5625 495.976562 493.730469 532.988281 C 442.910156 550.40625 404.265625 543.191406 366.714844 596.191406 C 361.609375 603.402344 353.71875 601.699219 353.515625 594.351562 C 348.34375 450.125 534.753906 439.035156 524.414062 293.71875 C 517.132812 191.738281 416.171875 148.128906 358.414062 174.796875 C 320.453125 192.347656 325.824219 196.5 298.75 201.398438 C 276.367188 205.410156 251.941406 206.910156 245.617188 214.9375 C 323.71875 226.5 368.957031 268.476562 367.53125 300.042969 C 366.03125 333.3125 277.046875 455.023438 317.796875 737.765625 L 139.347656 737.765625 Z M 388.550781 224.734375 C 398.621094 224.734375 406.851562 218.132812 406.851562 210.039062 C 406.851562 201.875 398.621094 195.273438 388.550781 195.273438 C 378.484375 195.273438 370.25 201.875 370.25 210.039062 C 370.25 218.132812 378.484375 224.734375 388.550781 224.734375 Z M 388.550781 224.734375 "/></g></g></svg>