<svg xmlns="http://www.w3.org/2000/svg" xmlns:xlink="http://www.w3.org/1999/xlink" width="1000" zoomAndPan="magnify" viewBox="0 0 750 749.999995" height="1000" preserveAspectRatio="xMidYMid meet" version="1.2"><defs><clipPath id="abc3c5eb91"><path d="M 139.347656 11.847656 L 674.847656 11.847656 L 674.847656 737.847656 L 139.347656 737.847656 Z M 139.347656 11.847656 "/></clipPath></defs><g id="cb28948e70"><g clip-rule="nonzero" clip-path="url(#abc3c5eb91)"><path style=" stroke:none;fill-rule:evenodd;fill:currentColor;fill-opacity:1;" d="M 139.347656 11.925781 L 407.097656 11.925781 C 554.414062 11.925781 674.847656 132.414062 674.847656 279.636719 C 674.847656 393.726562 601.632812 495.976562 493.785156 532.988281 C 442.957031 550.40625 404.308594 543.191406 366.75 596.191406 C 361.644531 603.402344 353.753906 601.699219 353.546875 594.355469 C 348.378906 450.125 534.816406 439.035156 524.472656 293.71875 C 517.191406 191.738281 416.214844 148.128906 358.449219 174.796875 C 320.480469 192.347656 325.855469 196.5 298.773438 201.398438 C 276.386719 205.410156 251.960938 206.910156 245.632812 214.9375 C 323.746094 226.5 368.996094 268.476562 367.566406 300.042969 C 366.070312 333.3125 277.066406 455.023438 317.824219 737.765625 L 139.347656 737.765625 Z M 388.589844 224.734375 C 398.660156 224.734375 406.894531 218.132812 406.894531 210.039062 C 406.894531 201.875 398.660156 195.273438 388.589844 195.273438 C 378.519531 195.273438 370.289062 201.875 370.289062 210.039062 C 370.289062 218.132812 378.519531 224.734375 388.589844 224.734375 Z M 388.589844 224.734375 "/></g></g></svg>